HIERARCHY
ROOT Hips
{
	OFFSET -0.001795 -0.223333 0.028219
	CHANNELS 6 Xposition Yposition Zposition Zrotation Yrotation Xrotation 
	JOINT LeftUpLeg
	{
		OFFSET 0.069520 -0.091406 -0.006815
		CHANNELS 3 Zrotation Yrotation Xrotation
		JOINT LeftLeg
		{
			OFFSET 0.034277 -0.375199 -0.004496
			CHANNELS 3 Zrotation Yrotation Xrotation
			JOINT LeftFoot
			{
				OFFSET -0.013596 -0.397961 -0.043693
				CHANNELS 3 Zrotation Yrotation Xrotation
				JOINT LeftToe
				{
					OFFSET 0.026358 -0.055791 0.119288
					CHANNELS 3 Zrotation Yrotation Xrotation
					End Site
					{
						OFFSET 0.000000 0.000000 0.000000
					}
				}
			}
		}
	}
	JOINT RightUpLeg
	{
		OFFSET -0.067670 -0.090522 -0.004320
		CHANNELS 3 Zrotation Yrotation Xrotation
		JOINT RightLeg
		{
			OFFSET -0.038290 -0.382569 -0.008850
			CHANNELS 3 Zrotation Yrotation Xrotation
			JOINT RightFoot
			{
				OFFSET 0.015774 -0.398415 -0.042312
				CHANNELS 3 Zrotation Yrotation Xrotation
				JOINT RightToe
				{
					OFFSET -0.025372 -0.048144 0.123348
					CHANNELS 3 Zrotation Yrotation Xrotation
					End Site
					{
						OFFSET 0.000000 0.000000 0.000000
					}
				}
			}
		}
	}
	JOINT Spine
	{
		OFFSET -0.002533 0.108963 -0.026696
		CHANNELS 3 Zrotation Yrotation Xrotation
		JOINT Spine1
		{
			OFFSET 0.005487 0.135180 0.001092
			CHANNELS 3 Zrotation Yrotation Xrotation
			JOINT Spine2
			{
				OFFSET 0.001457 0.052922 0.025425
				CHANNELS 3 Zrotation Yrotation Xrotation
				JOINT Neck
				{
					OFFSET -0.002778 0.213870 -0.042857
					CHANNELS 3 Zrotation Yrotation Xrotation
					JOINT Head
					{
						OFFSET 0.005152 0.064970 0.051349
						CHANNELS 3 Zrotation Yrotation Xrotation
						End Site
						{
							OFFSET 0.000000 0.000000 0.000000
						}
					}
				}
				JOINT LeftShoulder
				{
					OFFSET 0.078845 0.121749 -0.034090
					CHANNELS 3 Zrotation Yrotation Xrotation
					JOINT LeftArm
					{
						OFFSET 0.090977 0.030469 -0.008868
						CHANNELS 3 Zrotation Yrotation Xrotation
						JOINT LeftForeArm
						{
							OFFSET 0.259612 -0.012772 -0.027456
							CHANNELS 3 Zrotation Yrotation Xrotation
							JOINT LeftHand
							{
								OFFSET 0.249234 0.008986 -0.001171
								CHANNELS 3 Zrotation Yrotation Xrotation
								End Site
								{
									OFFSET 0.000000 0.000000 0.000000
								}
							}
						}
					}
				}
				JOINT RightShoulder
				{
					OFFSET -0.081759 0.118833 -0.038615
					CHANNELS 3 Zrotation Yrotation Xrotation
					JOINT RightArm
					{
						OFFSET -0.096012 0.032551 -0.009143
						CHANNELS 3 Zrotation Yrotation Xrotation
						JOINT RightForeArm
						{
							OFFSET -0.253742 -0.013329 -0.021401
							CHANNELS 3 Zrotation Yrotation Xrotation
							JOINT RightHand
							{
								OFFSET -0.255298 0.007772 -0.005559
								CHANNELS 3 Zrotation Yrotation Xrotation
								End Site
								{
									OFFSET 0.000000 0.000000 0.000000
								}
							}
						}
					}
				}
			}
		}
	}
}
MOTION
Frames: 13
Frame Time: 0.050000
0.000000 1.001392 0.000000 -0.527343 0.250235 -2.020272 1.372657 0.330251 4.318187 -3.409504 0.374439 0.057894 1.773680 6.831009 9.253065 0.000000 0.000000 0.000000 0.975364 -0.257702 2.204775 2.907811 -0.311777 0.101503 -0.779440 -5.838788 9.982325 0.000000 0.000000 0.000000 2.204039 -0.460240 7.603254 0.159611 0.488589 -20.585880 -1.342985 1.615817 25.131389 4.445308 -0.778530 -24.980942 0.000000 0.000000 0.000000 -28.617840 -10.014468 3.897837 -43.775541 -4.741997 -5.216714 -9.847723 -23.662421 3.030527 0.000000 0.000000 0.000000 26.683289 7.552917 3.741747 48.320222 5.395793 -4.851493 5.731121 23.192940 2.043340 0.000000 0.000000 0.000000 
0.000042 1.002254 -0.000103 -0.037540 -0.197171 -2.105601 1.116091 0.358096 4.459342 -3.439343 0.383194 -0.344798 2.159237 7.227050 8.423709 0.000000 0.000000 0.000000 0.882540 -0.271714 2.376578 2.872443 -0.301943 0.305215 -1.277436 -6.171301 7.697932 0.000000 0.000000 0.000000 1.464994 -0.444185 8.318465 0.934235 0.282058 -21.171495 -1.557720 1.689991 25.189041 4.468477 -0.823825 -25.068116 0.000000 0.000000 0.000000 -28.967462 -9.838119 3.882103 -43.103851 -4.235064 -5.343655 -10.106645 -24.271934 3.169351 0.000000 0.000000 0.000000 26.219581 8.434927 4.183406 48.236449 4.753266 -5.055200 5.649549 24.181576 2.111647 0.000000 0.000000 0.000000 
0.000037 1.002528 -0.000243 -0.047424 0.029966 -2.049435 1.372215 0.334673 4.337627 -3.588655 0.397101 -0.206250 2.202662 7.165631 7.865565 0.000000 0.000000 0.000000 1.361702 -0.267161 2.166264 2.101549 -0.209895 0.726607 -1.403693 -6.492982 7.952267 0.000000 0.000000 0.000000 1.413477 -0.460920 8.675916 1.109496 0.215001 -20.471352 -1.756808 1.797437 24.763160 4.009980 -0.459492 -25.514712 0.000000 0.000000 0.000000 -28.550618 -9.168906 3.318465 -43.413930 -4.658570 -5.184492 -10.154113 -24.244039 3.171221 0.000000 0.000000 0.000000 25.814652 7.609401 3.737744 49.208607 4.960496 -5.048305 5.801975 24.993881 2.254741 0.000000 0.000000 0.000000 
0.000085 1.002689 -0.000623 -0.073463 0.261325 -2.365477 1.107176 0.329820 4.141725 -3.437664 0.377734 0.204274 2.391680 7.493848 7.789039 0.000000 0.000000 0.000000 1.508186 -0.304025 2.453327 2.234440 -0.225696 0.769213 -1.254402 -6.016253 7.493071 0.000000 0.000000 0.000000 1.449482 -0.502396 9.404101 1.136271 0.219608 -20.656107 -1.613331 1.959642 24.974955 4.338114 -0.505123 -26.542010 0.000000 0.000000 0.000000 -28.872801 -9.627921 3.505008 -42.355119 -4.830743 -5.001884 -10.857041 -24.206104 3.296880 0.000000 0.000000 0.000000 26.138635 7.688167 3.908735 47.928340 5.307588 -4.875015 6.446014 25.013569 2.380312 0.000000 0.000000 0.000000 
0.000136 1.002258 -0.000900 -0.314720 0.371585 -2.373011 1.797303 0.259292 3.616446 -3.757868 0.411709 0.581151 2.475735 7.632523 7.728112 0.000000 0.000000 0.000000 1.364917 -0.263280 2.138481 2.267134 -0.220634 1.261287 -0.663984 -4.860805 7.775147 0.000000 0.000000 0.000000 1.552660 -0.509988 9.355836 1.373452 0.152686 -20.563950 -1.478412 1.736997 25.538789 3.734828 -0.209023 -26.420696 0.000000 0.000000 0.000000 -29.009412 -9.418171 3.454454 -42.597853 -5.381228 -4.918593 -10.589210 -24.147068 3.242147 0.000000 0.000000 0.000000 26.014116 7.759053 3.921719 47.919823 5.468280 -4.862258 5.930661 25.321754 2.310913 0.000000 0.000000 0.000000 
0.000199 1.002476 -0.001038 -0.143355 0.498111 -2.320205 1.632396 0.250949 3.432590 -3.609262 0.393170 0.814457 2.496806 7.378579 6.650338 0.000000 0.000000 0.000000 1.197058 -0.239076 1.974076 2.323122 -0.221736 1.589419 -0.716828 -4.702021 7.031561 0.000000 0.000000 0.000000 1.329283 -0.503781 9.576595 1.843214 0.029459 -20.710137 -1.596247 1.768528 25.640887 3.425889 -0.129299 -25.238206 0.000000 0.000000 0.000000 -30.068091 -9.928845 3.746916 -41.669737 -5.210923 -4.856742 -10.296161 -24.080997 3.158513 0.000000 0.000000 0.000000 26.118487 8.442945 4.392306 47.381996 5.357564 -4.875901 5.500660 25.661638 2.247403 0.000000 0.000000 0.000000 
0.000288 1.002370 -0.001012 -0.050089 0.568552 -2.210163 1.752374 0.236209 3.307163 -3.744500 0.408191 0.799355 2.504094 7.353304 6.503260 0.000000 0.000000 0.000000 1.026306 -0.212105 1.778789 2.274277 -0.212860 1.750666 -0.725507 -4.543969 6.552952 0.000000 0.000000 0.000000 1.503952 -0.518306 9.560171 1.646277 0.083253 -20.639869 -1.711030 1.927876 25.816018 3.134890 0.004610 -24.476680 0.000000 0.000000 0.000000 -29.969607 -10.240447 3.878772 -41.723509 -5.521505 -4.755887 -10.314283 -24.127920 3.162912 0.000000 0.000000 0.000000 26.312585 8.405785 4.460642 47.361273 5.571401 -4.836717 5.536262 25.451491 2.240046 0.000000 0.000000 0.000000 
0.000366 1.003262 -0.000911 0.029885 0.381105 -2.265026 1.827547 0.229121 3.226352 -3.630794 0.395369 1.340152 2.368785 6.845761 5.636534 0.000000 0.000000 0.000000 0.940861 -0.181236 1.522680 2.454986 -0.221740 2.447508 -0.866628 -4.615559 5.859969 0.000000 0.000000 0.000000 1.456859 -0.528019 9.851607 1.672082 0.064409 -20.425545 -1.478075 2.215229 25.844931 3.923765 -0.520020 -23.757366 0.000000 0.000000 0.000000 -29.262477 -10.410606 3.936033 -42.458013 -6.249094 -4.593800 -10.114397 -24.209960 3.135993 0.000000 0.000000 0.000000 26.189575 8.104593 4.323803 47.197045 6.031426 -4.674155 5.390362 25.436611 2.215198 0.000000 0.000000 0.000000 
0.000425 1.004356 -0.000833 -0.017587 0.248293 -2.159965 1.860043 0.198205 2.823041 -3.673266 0.400165 2.016416 2.207532 6.397030 5.157816 0.000000 0.000000 0.000000 0.842153 -0.114166 0.925581 2.479227 -0.213462 3.039546 -0.836593 -4.503776 5.709600 0.000000 0.000000 0.000000 1.687933 -0.556074 9.994069 1.445582 0.123516 -20.386730 -1.327970 2.419711 25.796401 4.406578 -0.801577 -23.691597 0.000000 0.000000 0.000000 -29.058802 -10.608502 4.015774 -42.488557 -6.345835 -4.549749 -10.035982 -24.229102 3.116974 0.000000 0.000000 0.000000 26.521476 7.854553 4.224679 46.898060 6.278086 -4.577968 5.112454 25.777787 2.199007 0.000000 0.000000 0.000000 
0.000553 1.005526 -0.000818 -0.180176 0.363055 -2.301416 2.033058 0.195099 2.860955 -3.679965 0.398690 2.628652 2.300645 6.209409 3.972595 0.000000 0.000000 0.000000 0.698938 -0.072021 0.566247 2.700190 -0.235936 3.580692 -0.901475 -4.331476 4.881924 0.000000 0.000000 0.000000 1.977850 -0.614904 10.545278 1.306556 0.157557 -20.191997 -1.164216 2.682503 25.490640 4.781961 -1.041546 -23.085637 0.000000 0.000000 0.000000 -29.013053 -10.771111 3.960754 -42.371931 -6.379252 -4.457707 -9.997666 -24.467250 3.126773 0.000000 0.000000 0.000000 27.087259 7.650899 4.232444 46.054953 6.571331 -4.429599 5.051463 25.910053 2.200671 0.000000 0.000000 0.000000 
0.000763 1.006060 -0.000741 -0.176154 0.429129 -2.528607 2.151609 0.186263 2.780691 -3.837622 0.418894 3.009761 2.377174 6.276901 3.715069 0.000000 0.000000 0.000000 0.693910 -0.094926 0.786165 2.566874 -0.214789 3.782416 -0.981132 -4.328317 4.403244 0.000000 0.000000 0.000000 1.945082 -0.619917 10.699022 1.228215 0.173053 -19.993450 -0.834843 2.881833 25.440075 4.976299 -1.147185 -22.883052 0.000000 0.000000 0.000000 -28.560238 -10.702037 3.822434 -42.765598 -6.427814 -4.459049 -10.133211 -24.618884 3.173582 0.000000 0.000000 0.000000 27.090860 7.642088 4.318289 45.910979 6.846037 -4.351243 4.987196 26.130612 2.219373 0.000000 0.000000 0.000000 
0.000960 1.005811 -0.000630 -0.343857 0.769978 -2.724449 2.430659 0.192827 3.027987 -3.958130 0.431538 2.997505 2.236818 6.000425 3.660258 0.000000 0.000000 0.000000 0.891167 -0.116510 0.948588 2.383230 -0.191644 3.792536 -1.000882 -4.178098 3.933912 0.000000 0.000000 0.000000 2.156139 -0.654559 10.901971 1.150294 0.201447 -19.944425 -0.716348 3.036189 25.657223 5.280198 -1.373225 -22.166737 0.000000 0.000000 0.000000 -28.003094 -10.721832 3.702325 -43.355578 -6.484903 -4.486327 -9.725805 -24.717526 3.093573 0.000000 0.000000 0.000000 27.205212 7.477517 4.374848 45.685886 7.359144 -4.226448 4.886278 26.181154 2.218280 0.000000 0.000000 0.000000 
0.000952 1.005249 -0.000622 -0.322042 1.124199 -2.698388 2.458144 0.188968 3.028466 -4.006290 0.434077 2.890332 2.083487 5.754476 3.772538 0.000000 0.000000 0.000000 0.726648 -0.090880 0.745899 2.411794 -0.197628 3.848823 -0.986790 -4.053668 3.736540 0.000000 0.000000 0.000000 2.538602 -0.688804 10.825443 0.556970 0.381885 -19.933367 -0.908420 3.167275 25.752409 5.412087 -1.472446 -21.638186 0.000000 0.000000 0.000000 -27.593880 -10.774922 3.605197 -43.429064 -6.326310 -4.524231 -9.410933 -24.962244 3.045945 0.000000 0.000000 0.000000 27.588648 6.987902 4.224848 45.642936 7.735017 -4.152478 4.998552 26.279226 2.272637 0.000000 0.000000 0.000000 
